<?xml version="1.0" encoding="UTF-8"?>
<svg width="1280px" height="720px" viewBox="0 0 1280 720" version="1.1" xmlns="http://www.w3.org/2000/svg" xmlns:xlink="http://www.w3.org/1999/xlink">
    <!-- Generator: Sketch 61.2 (89653) - https://sketch.com -->
    <title>Group</title>
    <desc>Created with Sketch.</desc>
    <g id="Page-1" stroke="none" stroke-width="1" fill="none" fill-rule="evenodd">
        <g id="Artboard" transform="translate(-38.000000, -292.000000)">
            <g id="Group" transform="translate(38.000000, 292.000000)">
                <rect id="Rectangle" fill="#D8D8D8" x="0" y="0" width="1280" height="720"></rect>
                <g id="undraw_female_avatar_w3jk" transform="translate(390.000000, 110.000000)" fill-rule="nonzero">
                    <path d="M500,249.999989 C500.038911,282.115582 493.873183,313.936294 481.84155,343.713003 C481.811964,343.779571 481.789775,343.838742 481.760189,343.90531 L481.760189,343.912707 C473.672903,363.851201 463.034421,382.656894 450.110813,399.85945 C447.618212,403.187852 445.046716,406.447221 442.396324,409.637556 C441.42739,410.806195 440.443663,411.967438 439.459936,413.113887 C434.393374,418.994064 429.063004,424.627693 423.468829,430.014774 C422.167055,431.272141 420.850488,432.514744 419.519128,433.742584 C419.208478,434.031046 418.897827,434.312111 418.587177,434.600573 C412.071453,440.554502 405.244829,446.159005 398.136014,451.390513 C393.365309,454.918619 388.468864,458.269211 383.44668,461.442287 C382.34461,462.14495 381.235144,462.835285 380.118281,463.513293 C378.180413,464.696725 376.225287,465.853037 374.252903,466.982228 C371.678941,468.461518 369.072928,469.893964 366.434863,471.279565 C365.369776,471.849092 364.297329,472.396429 363.224807,472.943766 C361.656762,473.749979 360.08132,474.526606 358.491084,475.288441 C358.217416,475.421577 357.943748,475.554713 357.670079,475.680452 C356.634577,476.183411 355.584283,476.671577 354.533988,477.159742 C340.85537,483.468664 326.629779,488.516699 312.034031,492.241103 C311.952671,492.263292 311.878706,492.278085 311.797345,492.300274 C310.843204,492.544357 309.881667,492.781043 308.920129,493.010333 C308.202674,493.187848 307.477823,493.357966 306.752972,493.520688 C306.663584,493.549837 306.572093,493.572091 306.479303,493.587256 C304.992619,493.93489 303.505934,494.26773 302.004456,494.570984 C301.161262,494.748499 300.318067,494.926014 299.474873,495.096132 C298.964518,495.207079 298.446767,495.303233 297.936413,495.399387 C297.292922,495.525126 296.656828,495.643469 296.013338,495.769209 C295.658309,495.843173 295.303279,495.902345 294.940854,495.961517 C294.127245,496.109446 293.313636,496.257375 292.507424,496.397907 C291.131686,496.634594 289.741155,496.863883 288.35802,497.070984 C287.352104,497.22631 286.353584,497.374238 285.347668,497.514771 C284.164238,497.684889 282.980807,497.840215 281.78998,497.988144 C281.464536,498.039919 281.139093,498.076901 280.813649,498.113883 C280.392096,498.165619 279.970499,498.217394 279.548858,498.269209 C278.698267,498.372759 277.847676,498.468913 276.989689,498.55767 C276.545902,498.609446 276.109512,498.653824 275.665726,498.698203 C274.822531,498.78696 273.979337,498.868321 273.136142,498.942286 C272.048865,499.045799 270.961588,499.134593 269.866915,499.223351 C268.535555,499.326901 267.211592,499.423055 265.872836,499.504416 C265.014849,499.556191 264.156862,499.607966 263.291478,499.652345 C261.087338,499.770688 258.883198,499.852049 256.664266,499.911221 C255.562196,499.940806 254.45273,499.962996 253.343263,499.977789 L253.321074,499.977789 C252.219004,499.992582 251.109538,500 250.000071,500 C238.756734,500 227.525799,499.253484 216.383242,497.751457 C208.210173,496.656783 200.167775,495.172562 192.256048,493.298795 C191.938001,493.22483 191.619954,493.150866 191.309303,493.069505 C190.510487,492.884594 189.719068,492.68489 188.927649,492.485185 C188.224987,492.307671 187.529721,492.122759 186.827059,491.937848 C168.717913,487.225331 151.200177,480.478762 134.608178,471.826902 C134.526817,471.782524 134.43806,471.738145 134.356699,471.693766 C133.87593,471.442287 133.402558,471.198204 132.929185,470.939328 C131.886287,470.391991 130.84832,469.834792 129.815283,469.267731 C123.935112,466.035448 118.205335,462.578841 112.625952,458.897909 C111.191042,457.95856 109.770925,457.004418 108.365601,456.035483 C107.914418,455.724832 107.470632,455.414181 107.026845,455.10353 C106.560869,454.778087 106.094893,454.452643 105.636314,454.127199 C104.415901,453.261814 103.202884,452.386568 101.997264,451.501459 C97.004666,447.832821 92.1599964,443.984201 87.4632556,439.955602 C70.8157396,425.698227 56.105115,409.324062 43.705904,391.249983 C39.3789853,384.948208 35.3405279,378.444263 31.5905318,371.738149 C10.8087847,334.53371 -0.0688034372,292.615097 0,249.999989 C0,111.930468 111.930686,0 250.000071,0 C388.069457,0 500,111.930468 500,249.999989 Z" id="Path" fill="#6C63FF"></path>
                    <path d="M289.760349,493.464052 C290.562339,493.279096 291.356903,493.079342 292.151468,492.879589 C292.856922,492.702031 293.554951,492.517074 294.260405,492.332117 C294.297534,490.859862 294.34956,489.239642 294.401496,487.486252 C294.83962,473.755068 295.871811,451.649046 298.307485,425.015284 C298.44115,423.587418 298.574815,422.149688 298.70848,420.702094 C299.577303,411.676208 300.594643,402.184231 301.81248,392.344535 C301.849609,392.019011 301.894164,391.700886 301.931293,391.375362 C302.918929,383.40003 304.04023,375.210148 305.302623,366.864903 C306.186252,361.02767 307.14171,355.126319 308.168995,349.160849 C308.243253,348.746546 308.317512,348.324845 308.39177,347.910542 C308.688804,346.186746 308.993263,344.470348 309.305148,342.739153 C310.173971,337.922881 311.1022,333.077016 312.074985,328.231151 C315.498295,311.185543 319.575079,294.03636 324.439001,277.353267 C329.379897,260.051489 335.465061,243.094574 342.654576,226.593755 C348.230723,213.775403 354.872749,201.443936 362.51126,189.72819 C362.622648,189.558029 362.734035,189.395268 362.845423,189.225107 C372.610396,174.56914 383.771427,162.132653 396.514161,152.833031 L393.870564,149.237473 C381.66249,158.152385 370.46433,170.014273 360.276083,184.823138 C360.224103,184.897121 360.179548,184.963705 360.127567,185.037688 C352.466203,196.356575 345.778945,208.300445 340.137217,220.741726 C332.582879,237.383237 326.210694,254.532667 321.067671,272.063506 C316.196323,288.354491 311.827457,306.00429 307.961072,325.012905 C306.602173,331.708337 305.305127,338.568997 304.069934,345.594884 C303.86201,346.793404 303.654087,347.991923 303.446164,349.197841 C303.446164,349.212637 303.438738,349.234832 303.438738,349.249628 C303.119427,351.099195 302.814968,352.948762 302.503082,354.820524 C301.730766,359.53322 301.003034,364.208925 300.319887,368.847638 C299.265418,375.994365 298.312436,383.017786 297.46094,389.917904 C297.178803,392.19657 296.906522,394.457974 296.644098,396.702115 C296.272806,399.868573 295.921317,402.993108 295.58963,406.075719 C295.121802,410.366714 294.693579,414.566464 294.30496,418.674968 L294.193572,419.806903 C294.134166,420.457951 294.074759,421.108998 294.015352,421.752648 C291.000463,454.14966 290.057382,480.317331 289.760349,493.464052 Z" id="Path" fill="#000000" opacity="0.2"></path>
                    <path d="M346.405229,471.67756 C346.48646,471.633017 346.575076,471.588473 346.656307,471.54393 C348.177548,470.749576 349.684019,469.940375 351.190491,469.108902 C351.685263,463.184655 352.349883,456.673923 353.221273,449.829117 C353.40589,448.418582 353.590507,446.985775 353.797277,445.545545 C353.900625,444.773463 354.011432,443.993956 354.122202,443.207026 C354.993593,437.178846 356.027446,430.957644 357.268069,424.706748 C362.311794,399.198337 370.686003,373.125713 384.591325,357.030768 C385.337176,356.162175 386.097796,355.330702 386.887992,354.5215 C388.846033,352.475894 390.973047,350.600841 393.246187,348.91648 L390.617247,345.315904 C387.444209,347.675077 384.523862,350.359638 381.903344,353.326258 C380.980261,354.358175 380.079332,355.432161 379.200557,356.548216 C366.402935,372.739672 358.412729,396.711342 353.435502,420.445447 C352.135802,426.636953 351.042871,432.821072 350.112404,438.841792 C349.876095,440.415652 349.649632,441.974664 349.433015,443.518829 C347.992931,453.719223 347.04031,463.355404 346.405229,471.67756 Z" id="Path" fill="#000000" opacity="0.2"></path>
                    <circle id="Oval" fill="#000000" opacity="0.2" cx="421.023965" cy="130.174292" r="22.3311547"></circle>
                    <circle id="Oval" fill="#000000" opacity="0.2" cx="414.488017" cy="321.895425" r="22.3311547"></circle>
                    <path d="M333.2133,167.940729 C337.865496,194.712704 327.59566,218.954248 327.59566,218.954248 C327.59566,218.954248 309.783123,199.789851 305.130926,173.017877 C300.47873,146.245902 310.748573,122.004357 310.748573,122.004357 C310.748573,122.004357 328.561111,141.168754 333.2133,167.940729 Z" id="Path" fill="#000000" opacity="0.2"></path>
                    <path d="M406.867824,230.134234 C381.599893,239.331837 356.20915,233.429401 356.20915,233.429401 C356.20915,233.429401 371.785821,212.61462 397.053752,203.41698 C422.321683,194.21934 447.712418,200.121813 447.712418,200.121813 C447.712418,200.121813 432.135755,220.936594 406.867824,230.134234 Z" id="Path" fill="#000000" opacity="0.2"></path>
                    <path d="M411.423852,400.536304 C393.676152,407.008448 375.816993,402.786383 375.816993,402.786383 C375.816993,402.786383 386.732581,388.070915 404.480288,381.598772 C422.227994,375.126629 440.087146,379.348693 440.087146,379.348693 C440.087146,379.348693 429.171559,394.064161 411.423852,400.536304 Z" id="Path" fill="#000000" opacity="0.2"></path>
                    <path d="M325.708061,396.514161 L326.797386,396.889807 C326.690293,397.664949 326.431301,398.14196 325.708061,396.514161 Z" id="Path" fill="#2F2E41"></path>
                    <path d="M326.443475,397.26252 C326.454368,397.373532 326.476057,397.492474 326.486961,397.603486 L326.018486,397.429038 C326.029379,397.325956 326.040272,397.214944 326.062059,397.103932 C326.171144,395.716282 326.040294,394.074891 326.443475,397.26252 Z" id="Path" fill="#2F2E41"></path>
                    <circle id="Oval" fill="#2F2E41" cx="230.392157" cy="240.196078" r="121.459695"></circle>
                    <circle id="Oval" fill="#D0CDE1" cx="240.196078" cy="282.679739" r="73.5294118"></circle>
                    <path d="M408.496732,424.022139 L408.408087,424.044384 L391.321671,428.15965 L355.745286,436.731267 L350.891946,437.902821 L296.788657,450.930789 L292.193867,452.043023 L160.932077,483.660131 C152.058684,480.253141 143.38897,476.334008 134.96634,471.922354 C134.885081,471.877864 134.796436,471.833375 134.715178,471.788886 C134.235015,471.536779 133.762239,471.292088 133.289463,471.032566 C132.247878,470.483864 131.211219,469.925276 130.179484,469.3568 C124.306721,466.116457 118.584163,462.65123 113.01181,458.961119 C111.578708,458.019428 110.16038,457.062906 108.756827,456.091555 C108.306213,455.78013 107.862985,455.468704 107.419758,455.157279 C106.954369,454.831023 106.48898,454.504768 106.030979,454.178513 C104.812103,453.31097 103.600615,452.433541 102.396514,451.546225 C115.146689,428.285703 145.507764,412.825649 175.86884,404.365255 C198.783696,397.973617 203.821714,376.967222 203.385873,358.274275 C203.275065,354.010484 202.914938,349.756902 202.307353,345.535487 C201.381685,338.816749 199.909184,332.185426 197.904628,325.708061 L271.369567,328.169806 L278.948755,345.698615 C278.741336,347.623951 278.674674,349.561951 278.749303,351.497062 C279.325498,365.874541 288.167885,375.172818 299.078665,381.171467 C300.496993,381.950068 301.952256,382.676691 303.429681,383.351446 C321.321293,391.515244 342.381981,392.071361 342.381981,392.071361 C348.795137,391.35976 355.272971,391.481878 361.654985,392.434691 C363.206281,392.671968 364.713254,392.956205 366.175904,393.287404 C374.715574,395.203146 382.782918,398.827049 389.895956,403.942606 C392.612848,405.882543 395.183181,408.021387 397.585951,410.34166 C401.856808,414.353813 405.531269,418.961035 408.496732,424.022139 L408.496732,424.022139 Z" id="Path" fill="#D0CDE1"></path>
                    <path d="M419.389978,434.018052 C419.077503,434.307056 418.765027,434.58865 418.452551,434.877655 C411.898549,440.842791 405.03182,446.457844 397.881242,451.699198 C393.08251,455.233945 388.157299,458.590844 383.105611,461.769893 C381.997066,462.473878 380.881082,463.165513 379.757658,463.844797 C377.808405,465.030457 375.841793,466.188945 373.857821,467.320261 C371.268738,468.802336 368.647415,470.237478 365.993852,471.625687 C364.922507,472.196286 363.84376,472.744653 362.764938,473.293021 C361.18768,474.100751 359.602982,474.87884 358.003405,475.642109 C357.728129,475.775495 357.452853,475.908882 357.177577,476.034858 L354.030501,473.433818 L390.991899,428.438042 L398.424354,419.389978 C398.424354,419.389978 401.392872,419.389978 408.200376,424.325286 C411.963027,427.114452 415.518618,430.170527 418.839426,433.469684 C419.017983,433.654943 419.203981,433.832792 419.389978,434.018052 Z" id="Path" fill="#D0CDE1"></path>
                    <path d="M419.389978,433.419571 C419.290375,433.882832 419.151611,434.336876 418.975169,434.776849 C412.449875,440.714731 405.613224,446.304127 398.493968,451.521534 C392.317006,453.738864 385.908731,455.255708 379.390526,456.043336 C379.390526,456.043336 379.946074,458.816905 380.44977,463.611639 C378.509056,464.791881 376.551058,465.945076 374.575777,467.071223 C371.998034,468.546526 369.388194,469.975111 366.746254,471.356978 C365.679602,471.924969 364.60558,472.470831 363.531484,473.016693 C361.961135,473.820733 360.383379,474.595267 358.790808,475.355048 C358.516737,475.487825 358.242667,475.620602 357.968597,475.746003 C356.931574,476.247606 355.879736,476.734456 354.827899,477.221306 C341.12919,483.513222 326.882704,488.547651 312.265519,492.262016 C312.184038,492.284145 312.109965,492.298898 312.028485,492.321028 C311.072942,492.564453 310.109993,492.800501 309.147043,493.029173 C308.428534,493.206209 307.702618,493.375869 306.976702,493.538153 C306.887183,493.567222 306.795558,493.589417 306.702632,493.604541 C305.213763,493.951237 303.724895,494.28318 302.221212,494.585617 C301.376779,494.762654 300.532346,494.93969 299.687913,495.10935 C299.176809,495.219998 298.658297,495.315892 298.147193,495.411787 C297.502758,495.537188 296.865729,495.655212 296.221294,495.780613 C295.865743,495.854378 295.510192,495.91339 295.147234,495.972402 C294.332431,496.119932 293.517627,496.267462 292.710231,496.407616 C291.332472,496.643665 289.939898,496.872337 288.554732,497.078879 C287.547338,497.233786 286.547352,497.381316 285.539959,497.52147 C284.35479,497.691129 283.169621,497.846036 281.977044,497.993567 C281.651123,498.045202 281.325201,498.082085 280.99928,498.118967 C280.577108,498.170563 280.154892,498.222199 279.732631,498.273874 C278.88079,498.377145 278.02895,498.47304 277.169703,498.561558 C276.725264,498.613194 276.288233,498.657453 275.843795,498.701712 C274.999362,498.79023 274.154929,498.871372 273.310496,498.945137 C272.221622,499.048371 271.132748,499.136926 270.036467,499.225444 C268.703152,499.328715 267.377244,499.42461 266.036522,499.505752 C265.177274,499.557387 264.318027,499.609023 263.451372,499.653282 C261.243995,499.771306 259.036618,499.852448 256.814426,499.91146 C255.710737,499.940966 254.599641,499.963096 253.488545,499.977849 L253.466323,499.977849 C252.362635,499.992602 251.251539,500 250.140443,500 C238.880591,500.004672 227.633161,499.255496 216.474237,497.757518 C208.289164,496.665794 200.234953,495.185574 192.311605,493.316857 C191.993091,493.243092 191.674577,493.169327 191.36347,493.088185 C190.563481,492.903772 189.770899,492.704607 188.978317,492.505441 C188.274623,492.328404 187.578336,492.143992 186.874642,491.959579 C168.738897,487.259763 151.195431,480.531379 134.579062,471.90284 C134.497582,471.85858 134.408694,471.814321 134.327214,471.770062 C133.845739,471.519261 133.371671,471.275836 132.897603,471.017658 C173.556306,461.583098 237.807279,446.704671 293.562071,433.958056 C295.125013,433.603983 296.678078,433.249911 298.221266,432.895838 C318.813577,428.189623 338.102202,423.807974 354.420542,420.141847 C356.109407,419.765645 357.763693,419.396819 359.3834,419.03537 C376.916493,415.111065 390.531158,412.130954 397.916205,410.640898 C399.906844,410.187948 401.919281,409.835882 403.945753,409.586057 L419.360356,433.375311 L419.389978,433.419571 Z" id="Path" fill="#2F2E41"></path>
                    <circle id="Oval" fill="#2F2E41" cx="119.825708" cy="152.505447" r="35.9477124"></circle>
                    <circle id="Oval" fill="#2F2E41" cx="342.04793" cy="141.6122" r="35.9477124"></circle>
                    <path d="M303.050247,126.361659 C303.05277,108.001445 317.04914,92.5939757 335.511983,90.6271668 C321.65837,89.1309995 308.158768,95.5960442 300.757741,107.271192 C293.356715,118.94634 293.356715,133.776971 300.757741,145.452119 C308.158768,157.127267 321.65837,163.592312 335.511983,162.096145 C317.049143,160.129336 303.052774,144.721871 303.050247,126.361659 Z" id="Path" fill="#2F2E41"></path>
                    <path d="M79.1220593,180.933496 C66.1685166,167.803985 65.2626268,147.09258 77.0210322,132.897603 C66.1010475,141.423836 61.0507181,155.397194 64.0191369,168.871521 C66.9875557,182.345849 77.4523341,192.949907 90.9603409,196.171295 C104.468348,199.392683 118.642416,194.664495 127.45098,183.998741 C112.91694,195.381133 92.079192,194.059506 79.1220593,180.933496 Z" id="Path" fill="#2F2E41"></path>
                    <path d="M230.936819,183.006536 C188.221988,183.006536 153.594771,203.246393 153.594771,228.213494 C153.594771,239.38484 160.555117,249.594718 172.044389,257.48229 L186.933584,246.672316 L182.884578,263.60743 C184.564635,264.387572 186.280096,265.14265 188.069354,265.8405 L210.312275,239.83814 L210.312275,271.78211 C217.132686,272.877071 224.029423,273.424924 230.936819,273.420479 C273.651651,273.420479 308.278867,253.180595 308.278867,228.213494 C308.278867,203.246393 273.651651,183.006536 230.936819,183.006536 Z" id="Path" fill="#2F2E41"></path>
                    <path d="M305.33664,141.6122 C305.33664,141.6122 299.795308,167.289136 334.422658,177.559913 L305.33664,141.6122 Z" id="Path" fill="#2F2E41"></path>
                    <path d="M153.675471,147.058824 C153.675471,147.058824 166.787682,175.661278 127.45098,188.453159 L153.675471,147.058824 Z" id="Path" fill="#2F2E41"></path>
                    <ellipse id="Oval" fill="#D0CDE1" transform="translate(168.205219, 297.782186) rotate(-15.639460) translate(-168.205219, -297.782186) " cx="168.205219" cy="297.782186" rx="6.12946006" ry="14.7107101"></ellipse>
                    <ellipse id="Oval" fill="#D0CDE1" transform="translate(315.312290, 285.523247) rotate(-86.475770) translate(-315.312290, -285.523247) " cx="315.31229" cy="285.523247" rx="14.7107101" ry="6.12946006"></ellipse>
                </g>
            </g>
        </g>
    </g>
</svg>