<?xml version="1.0" encoding="UTF-8"?>
<svg width="1280px" height="720px" viewBox="0 0 1280 720" version="1.1" xmlns="http://www.w3.org/2000/svg" xmlns:xlink="http://www.w3.org/1999/xlink">
    <!-- Generator: Sketch 61.2 (89653) - https://sketch.com -->
    <title>Group 2</title>
    <desc>Created with Sketch.</desc>
    <g id="Page-1" stroke="none" stroke-width="1" fill="none" fill-rule="evenodd">
        <g id="Artboard" transform="translate(-1400.000000, -292.000000)">
            <g id="Group-2" transform="translate(1400.000000, 292.000000)">
                <rect id="Rectangle" fill="#D8D8D8" x="0" y="0" width="1280" height="720"></rect>
                <g id="undraw_male_avatar_323b" transform="translate(390.000000, 110.000000)" fill-rule="nonzero">
                    <path d="M500.000217,249.630724 C500.04466,283.423103 493.194318,316.870337 479.866864,347.932053 L479.038462,349.837518 C432.644505,455.225796 320.184091,515.365489 206.619822,495.516987 C205.118343,495.251108 203.619329,494.975382 202.122781,494.689808 C186.659183,491.696538 171.51668,487.237656 156.900888,481.373708 C154.526627,480.420975 152.169625,479.433776 149.829882,478.412112 C148.232249,477.717873 146.634615,477.001477 145.051775,476.262925 C56.6454599,435.349701 0.0518993476,346.926632 0,249.630724 C0,111.76514 111.930473,4.19818455e-14 250,4.19818455e-14 C388.069527,4.19818455e-14 500.000217,111.76514 500.000217,249.630724 Z" id="Path" fill="#6C63FF"></path>
                    <path d="M206.619822,495.516987 C205.118343,495.251108 203.619329,494.975382 202.122781,494.689808 C201.14645,466.395864 197.795858,408.323486 186.368306,347.503693 C180.118343,314.217134 171.442308,280.096012 159.408284,249.593796 C155.285499,239.039663 150.576512,228.723303 145.303254,218.692762 C133.143491,195.760709 118.39497,176.454948 100.510355,163.375185 L103.143491,159.78582 C118.017751,170.672083 131.385602,185.955194 143.247041,205.635155 C146.804734,211.528804 150.221906,217.816347 153.498558,224.497784 C157.011871,231.646972 160.362463,239.236829 163.550333,247.267356 C165.584357,252.378139 167.549347,257.666174 169.445303,263.131462 C177.699741,286.861152 184.716506,313.936484 190.495599,344.357459 C191.775214,351.078287 192.993163,357.964057 194.149445,365.014771 C203.106509,419.645495 205.806213,470.155096 206.619822,495.516987 Z" id="Path" fill="#000000" opacity="0.2"></path>
                    <path d="M149.829882,478.412112 C148.232249,477.717873 146.634615,477.001477 145.051775,476.262925 C143.505917,459.497784 140.66568,438.700148 135.473373,418.958641 C133.199264,410.092197 130.279765,401.40341 126.738166,392.961595 C120.813609,379.113737 113.143491,367.341211 103.224852,360.081241 L105.857988,356.499261 C116.242604,364.091581 124.252959,376.093058 130.443787,390.132939 C137.418639,405.952733 142.071006,424.364845 145.170118,441.957164 C147.470414,455.022157 148.920118,467.644018 149.829882,478.412112 Z" id="Path" fill="#000000" opacity="0.2"></path>
                    <ellipse id="Oval" fill="#000000" opacity="0.2" cx="75.6373817" cy="141.049978" rx="22.2548595" ry="22.2219867"></ellipse>
                    <ellipse id="Oval" fill="#000000" opacity="0.2" cx="82.8042899" cy="332.341824" rx="22.2548595" ry="22.2219867"></ellipse>
                    <path d="M163.990007,178.376211 C159.270732,204.96212 169.688646,229.035185 169.688646,229.035185 C169.688646,229.035185 187.758018,210.003981 192.477293,183.418072 C197.196568,156.832164 186.778646,132.759099 186.778646,132.759099 C186.778646,132.759099 168.709275,151.790303 163.990007,178.376211 Z" id="Path" fill="#000000" opacity="0.2"></path>
                    <path d="M90.027855,241.485391 C115.423521,250.757917 140.942618,244.8074 140.942618,244.8074 C140.942618,244.8074 125.287204,223.823065 99.8915385,214.550502 C74.4958728,205.277939 48.9767825,211.228493 48.9767825,211.228493 C48.9767825,211.228493 64.6321893,232.212829 90.027855,241.485391 Z" id="Path" fill="#000000" opacity="0.2"></path>
                    <path d="M85.7214053,410.881093 C103.521701,417.380414 121.433787,413.14062 121.433787,413.14062 C121.433787,413.14062 110.485851,398.363368 92.6855473,391.864032 C74.8852441,385.364697 56.9731657,389.604505 56.9731657,389.604505 C56.9731657,389.604505 67.9211021,404.381773 85.7214053,410.881093 Z" id="Path" fill="#000000" opacity="0.2"></path>
                    <ellipse id="Oval" fill="#D0CDE1" cx="249.486746" cy="207.591433" rx="97.4631213" ry="97.3191581"></ellipse>
                    <path d="M211.415214,282.101411 C211.415214,282.101411 223.598107,339.88466 223.598107,345.967105 C223.598107,352.049549 281.466834,379.420576 281.466834,379.420576 L333.244083,370.296898 L351.518491,315.554867 C351.518491,315.554867 321.061265,269.936514 321.061265,251.689173 L211.415214,282.101411 Z" id="Path" fill="#D0CDE1"></path>
                    <path d="M479.866864,347.932053 L479.038462,349.837518 C432.644505,455.225796 320.184091,515.365489 206.619822,495.516987 C205.118343,495.251108 203.619329,494.975382 202.122781,494.689808 C186.659183,491.696538 171.51668,487.237656 156.900888,481.373708 C154.526627,480.420975 152.169625,479.433776 149.829882,478.412112 C148.232249,477.717873 146.634615,477.001477 145.051775,476.262925 C130.704753,469.625992 117.021508,461.643319 104.186391,452.422452 L92.6331361,418.958641 L99.1272189,414.010377 L112.485207,403.825739 L126.738166,392.961632 L130.443787,390.132976 L186.368343,347.50373 L190.495562,344.357496 L219.563609,322.200923 L219.571006,322.193538 C219.571006,322.193538 251.005917,373.338294 296.693787,358.131499 C342.381657,342.924705 341.383136,299.320569 341.383136,299.320569 L479.866864,347.932053 Z" id="Path" fill="#2F2E41"></path>
                    <path d="M164.966997,129.184638 C164.966997,129.184638 195.911176,62.2379542 255.220851,77.6871861 C314.530525,93.136418 348.05338,116.310273 350.632093,139.484129 C353.210806,162.657984 349.342751,197.418752 349.342751,197.418752 C349.342751,197.418752 342.896006,149.783597 301.63713,160.083102 C260.378254,170.382607 195.911191,162.657976 195.911191,162.657976 L185.59645,255.35339 C185.59645,255.35339 173.992382,238.616721 161.098979,248.916211 C148.205577,259.215702 123.708099,149.783604 164.966997,129.184638 Z" id="Path" fill="#2F2E41"></path>
                    <path d="M156.900888,481.373708 C154.526627,480.420975 152.169625,479.433776 149.829882,478.412112 C148.232249,477.717873 146.634615,477.001477 145.051775,476.262925 C121.32332,465.276094 99.4635401,450.648012 80.2662722,432.909897 C87.0636095,423.66322 92.6331361,418.958641 92.6331361,418.958641 L138.321006,418.958641 L145.170118,441.957164 L156.900888,481.373708 Z" id="Path" fill="#2F2E41"></path>
                    <path d="M439.844675,342.924668 L479.038462,349.837518 C468.549728,373.696557 454.384062,395.768436 437.056213,415.251108 L439.844675,342.924668 Z" id="Path" fill="#2F2E41"></path>
                </g>
            </g>
        </g>
    </g>
</svg>